<?xml version="1.0" standalone="no"?>
<!DOCTYPE svg PUBLIC "-//W3C//DTD SVG 20010904//EN"
 "http://www.w3.org/TR/2001/REC-SVG-20010904/DTD/svg10.dtd">
<svg version="1.0" xmlns="http://www.w3.org/2000/svg"
 width="150.000000pt" height="150.000000pt" viewBox="0 0 150.000000 150.000000"
 preserveAspectRatio="xMidYMid meet">
<metadata>
Created by potrace 1.15, written by Peter Selinger 2001-2017
</metadata>
<g transform="translate(0.000000,150.000000) scale(0.100000,-0.100000)"
fill="#000000" stroke="none">
<path d="M199 981 c-39 -13 -71 -31 -102 -60 -50 -46 -51 -57 -11 -87 l36 -28
25 32 c47 60 114 78 175 46 30 -16 31 -15 61 14 37 37 29 53 -40 76 -49 17
-102 19 -144 7z"/>
<path d="M660 749 l0 -210 23 3 c20 3 22 9 25 84 l3 81 68 5 c82 6 124 31 141
83 15 45 5 87 -27 119 -32 33 -80 46 -165 46 l-68 0 0 -211z m189 144 c11 -10
24 -32 27 -50 5 -26 1 -37 -19 -57 -22 -22 -35 -26 -87 -26 l-60 0 0 75 0 75
59 0 c41 0 65 -5 80 -17z"/>
<path d="M978 812 c-16 -9 -28 -22 -28 -28 0 -20 32 -25 56 -9 47 31 118 8
126 -40 3 -18 -2 -19 -62 -17 -51 2 -72 -2 -97 -17 -35 -22 -49 -64 -34 -104
23 -60 119 -81 167 -36 l25 23 6 -22 c3 -13 13 -22 24 -22 17 0 19 9 19 111
l0 111 -34 34 c-30 30 -40 34 -87 34 -33 0 -65 -7 -81 -18z"/>
<path d="M1213 788 c8 -18 34 -77 57 -131 l43 -98 -31 -69 -31 -70 24 0 c12 0
25 6 28 13 3 6 42 95 86 196 45 101 81 186 81 187 0 2 -11 4 -24 4 -24 0 -42
-34 -96 -175 -6 -15 -13 -26 -15 -23 -2 2 -22 46 -44 98 -34 83 -42 95 -65 98
-27 3 -27 3 -13 -30z"/>
<path d="M270 750 l0 -40 59 0 c33 0 62 -4 65 -9 3 -5 -5 -24 -18 -43 l-23
-35 33 -22 c18 -13 38 -20 44 -16 22 13 51 87 57 145 l6 60 -112 0 -111 0 0
-40z"/>
</g>
</svg>
