<?xml version="1.0" standalone="no"?>
<!DOCTYPE svg PUBLIC "-//W3C//DTD SVG 20010904//EN"
 "http://www.w3.org/TR/2001/REC-SVG-20010904/DTD/svg10.dtd">
<svg version="1.0" xmlns="http://www.w3.org/2000/svg"
 width="256.000000pt" height="256.000000pt" viewBox="0 0 256.000000 256.000000"
 preserveAspectRatio="xMidYMid meet">
<metadata>
Created by potrace 1.15, written by Peter Selinger 2001-2017
</metadata>
<g transform="translate(0.000000,256.000000) scale(0.100000,-0.100000)"
fill="#000000" stroke="none">
<path d="M583 1554 c-21 -9 -16 -108 6 -135 16 -20 31 -25 88 -29 60 -4 68 -7
68 -25 0 -18 -9 -21 -73 -26 -131 -10 -162 -54 -162 -229 0 -189 30 -220 210
-220 117 0 162 16 180 66 6 14 10 140 10 283 l0 258 -26 27 c-26 25 -31 26
-138 26 -61 0 -120 2 -131 5 -11 2 -26 2 -32 -1z"/>
<path d="M114 1516 l-34 -34 0 -113 c-1 -63 -3 -194 -6 -291 -6 -203 -7 -202
79 -188 64 9 79 27 85 94 l4 56 59 0 c81 0 131 22 157 69 20 35 22 54 22 190
0 170 -8 198 -63 231 -27 17 -51 20 -150 20 l-119 0 -34 -34z"/>
<path d="M952 1376 c3 -158 5 -177 24 -202 37 -50 67 -66 140 -71 38 -3 72
-11 76 -17 14 -22 -15 -36 -73 -36 -84 0 -115 -36 -107 -121 l3 -34 115 -3
c140 -3 173 9 208 78 21 43 22 54 22 312 l0 268 -80 0 -80 0 0 -129 c0 -104
-3 -133 -16 -145 -19 -19 -38 -20 -52 -3 -7 8 -13 68 -14 143 l-3 129 -83 3
-84 3 4 -175z"/>
</g>
</svg>
