<?xml version="1.0" standalone="no"?>
<!DOCTYPE svg PUBLIC "-//W3C//DTD SVG 20010904//EN"
 "http://www.w3.org/TR/2001/REC-SVG-20010904/DTD/svg10.dtd">
<svg version="1.0" xmlns="http://www.w3.org/2000/svg"
 width="280.000000pt" height="280.000000pt" viewBox="0 0 280.000000 280.000000"
 preserveAspectRatio="xMidYMid meet">
<metadata>
Created by potrace 1.15, written by Peter Selinger 2001-2017
</metadata>
<g transform="translate(0.000000,280.000000) scale(0.100000,-0.100000)"
fill="#000000" stroke="none">
<path d="M1285 2499 c-461 -42 -851 -368 -969 -809 -117 -436 12 -877 341
-1167 153 -135 294 -213 471 -260 87 -24 115 -27 272 -27 157 0 185 3 272 27
177 47 318 125 471 260 188 166 310 377 363 629 21 100 24 331 5 428 -68 356
-278 641 -587 800 -189 97 -417 140 -639 119z m-455 -1001 c-21 -79 -40 -153
-44 -165 l-7 -23 160 0 160 0 9 33 c5 17 24 92 43 165 l34 132 37 0 c21 0 38
-3 38 -6 0 -29 -96 -363 -108 -377 -14 -16 -35 -17 -231 -15 l-216 3 -3 31
c-3 26 70 333 85 357 2 4 21 7 42 7 l37 0 -36 -142z m964 133 c6 -8 -49 -209
-59 -220 -4 -3 -95 -8 -202 -11 l-196 -5 -22 -75 c-22 -74 -22 -75 -59 -78
-42 -4 -43 1 -22 74 8 27 21 75 30 107 l17 57 199 0 c109 0 201 3 203 8 3 4 8
22 12 40 l7 32 -202 0 -202 0 7 33 c4 17 9 35 12 40 6 10 471 9 477 -2z m91
-188 c-51 -193 -53 -198 -79 -201 -56 -7 -56 -5 -4 190 27 101 51 189 53 196
3 7 21 12 43 12 l38 0 -51 -197z m119 -99 c-54 -51 -100 -91 -101 -90 -1 1 6
31 17 66 10 36 33 120 50 186 l32 121 50 -95 51 -96 -99 -92z"/>
</g>
</svg>
